<svg xmlns="http://www.w3.org/2000/svg" width="224" height="540" viewBox="0 0 224 540" xml:space="preserve">
  <style>.st19{display:inline}.st20{fill:#c93b39}.st21{fill:#345657}.st22{fill:#f2cb70}.st23{fill:#293144}.st24{fill:#d6d9de}</style>

  <g id="Layer_1"><path fill="#e8e8df" d="M0 420h224v48H0z"/><linearGradient id="SVGID_1_" gradientUnits="userSpaceOnUse" x1="112" y1="468" x2="112" y2="480"><stop offset="0" stop-color="#e8e8df"/><stop offset=".9944" stop-color="#ca3b37"/></linearGradient><path fill="url(#SVGID_1_)" d="M0 468h224v12H0z"/><path fill="#fff" d="M0 0h224v48H0z"/><linearGradient id="SVGID_2_" gradientUnits="userSpaceOnUse" x1="112" y1="48" x2="112" y2="60"><stop offset="0" stop-color="#fff"/><stop offset="1" stop-color="#cecf8b"/></linearGradient><path fill="url(#SVGID_2_)" d="M0 48h224v12H0z"/><path fill="#cecf8b" d="M0 60h224v48H0z"/><linearGradient id="SVGID_3_" gradientUnits="userSpaceOnUse" x1="112" y1="108" x2="112" y2="120"><stop offset="0" stop-color="#cecf8b"/><stop offset="1" stop-color="#1a1c1b"/></linearGradient><path fill="url(#SVGID_3_)" d="M0 108h224v12H0z"/><path fill="#1a1c1b" d="M0 120h224v48H0z"/><linearGradient id="SVGID_4_" gradientUnits="userSpaceOnUse" x1="112" y1="168" x2="112" y2="180"><stop offset="0" stop-color="#1a1c1b"/><stop offset="1" stop-color="#e7eabf"/></linearGradient><path fill="url(#SVGID_4_)" d="M0 168h224v12H0z"/><path fill="#e7eabf" d="M0 180h224v48H0z"/><linearGradient id="SVGID_5_" gradientUnits="userSpaceOnUse" x1="112" y1="228" x2="112" y2="240"><stop offset="0" stop-color="#e7eabf"/><stop offset=".9944" stop-color="#451e39"/></linearGradient><path fill="url(#SVGID_5_)" d="M0 228h224v12H0z"/><path fill="#451e39" d="M0 240h224v48H0z"/><linearGradient id="SVGID_6_" gradientUnits="userSpaceOnUse" x1="112" y1="288" x2="112" y2="300"><stop offset="0" stop-color="#451e39"/><stop offset=".9944" stop-color="#9cbc4d"/></linearGradient><path fill="url(#SVGID_6_)" d="M0 288h224v12H0z"/><g><path fill="#9cbc4d" d="M0 300h224v48H0z"/></g><g><linearGradient id="SVGID_7_" gradientUnits="userSpaceOnUse" x1="112" y1="348" x2="112" y2="360"><stop offset="0" stop-color="#9cbc4d"/><stop offset=".9944" stop-color="#d5c16a"/></linearGradient><path fill="url(#SVGID_7_)" d="M0 348h224v12H0z"/></g><g><path fill="#d5c16a" d="M0 360h224v48H0z"/></g>

  <g><path fill="#ca3b37" d="M0 480h224v48H0z"/></g><g><linearGradient id="SVGID_8_" gradientUnits="userSpaceOnUse" x1="112" y1="408" x2="112" y2="420"><stop offset="0" stop-color="#d5c16a"/><stop offset=".9944" stop-color="#e8e8df"/></linearGradient><path fill="url(#SVGID_8_)" d="M0 408h224v12H0z"/></g><g><linearGradient id="SVGID_9_" gradientUnits="userSpaceOnUse" x1="112" y1="528" x2="112" y2="540"><stop offset="0" stop-color="#ca3b37"/><stop offset=".9944" stop-color="#fff"/></linearGradient><path fill="url(#SVGID_9_)" d="M0 528h224v12H0z"/></g></g>
 </svg>